<svg width="21" height="21" viewBox="0 0 21 21" fill="none" xmlns="http://www.w3.org/2000/svg">
<path d="M11.3593 0.877839C11.3593 0.645393 11.4516 0.422467 11.616 0.258103C11.7804 0.0937386 12.0033 0.00139965 12.2357 0.00139965C14.5594 0.00395148 16.7871 0.92816 18.4302 2.57125C20.0733 4.21434 20.9974 6.44212 21 8.7658C21 8.99824 20.9077 9.22117 20.7433 9.38553C20.5789 9.5499 20.356 9.64224 20.1236 9.64224C19.8911 9.64224 19.6682 9.5499 19.5038 9.38553C19.3395 9.22117 19.2471 8.99824 19.2471 8.7658C19.2451 6.90687 18.5057 5.12467 17.1912 3.81021C15.8768 2.49575 14.0946 1.75637 12.2357 1.75428C12.0033 1.75428 11.7804 1.66194 11.616 1.49758C11.4516 1.33321 11.3593 1.11029 11.3593 0.877839ZM12.2357 5.26004C13.1655 5.26004 14.0572 5.62939 14.7146 6.28685C15.3721 6.94431 15.7414 7.83601 15.7414 8.7658C15.7414 8.99824 15.8338 9.22117 15.9981 9.38553C16.1625 9.5499 16.3854 9.64224 16.6179 9.64224C16.8503 9.64224 17.0732 9.5499 17.2376 9.38553C17.402 9.22117 17.4943 8.99824 17.4943 8.7658C17.4929 7.37155 16.9384 6.0348 15.9526 5.04892C14.9667 4.06303 13.63 3.50855 12.2357 3.50716C12.0033 3.50716 11.7804 3.5995 11.616 3.76386C11.4516 3.92823 11.3593 4.15115 11.3593 4.3836C11.3593 4.61604 11.4516 4.83897 11.616 5.00333C11.7804 5.1677 12.0033 5.26004 12.2357 5.26004ZM20.2051 14.6721C20.713 15.1814 20.9982 15.8714 20.9982 16.5906C20.9982 17.3099 20.713 17.9999 20.2051 18.5092L19.4075 19.4286C12.2296 26.3007 -5.2376 8.83766 1.52842 1.63684L2.53631 0.760396C3.04619 0.266678 3.72995 -0.0064453 4.43965 0.000115523C5.14936 0.00667634 5.82795 0.292394 6.32861 0.795454C6.35578 0.822624 7.9798 2.93221 7.9798 2.93221C8.46169 3.43847 8.72994 4.11096 8.7288 4.8099C8.72765 5.50884 8.4572 6.18045 7.97367 6.68513L6.95876 7.96123C7.52042 9.32594 8.3462 10.5662 9.38867 11.6108C10.4311 12.6554 11.6697 13.4837 13.0333 14.0481L14.3172 13.027C14.822 12.5439 15.4935 12.2737 16.1922 12.2728C16.8909 12.2718 17.5631 12.54 18.0692 13.0218C18.0692 13.0218 20.1779 14.645 20.2051 14.6721ZM18.9991 15.9465C18.9991 15.9465 16.9018 14.3329 16.8747 14.3058C16.6941 14.1267 16.4501 14.0263 16.1959 14.0263C15.9416 14.0263 15.6976 14.1267 15.5171 14.3058C15.4934 14.3303 13.7257 15.7387 13.7257 15.7387C13.6065 15.8336 13.4648 15.8957 13.3143 15.9191C13.1638 15.9424 13.0099 15.9262 12.8676 15.872C11.1012 15.2143 9.49667 14.1846 8.16283 12.8527C6.82899 11.5208 5.79697 9.91782 5.13667 8.15229C5.07812 8.00808 5.05904 7.85087 5.08137 7.69684C5.10371 7.5428 5.16666 7.39749 5.26375 7.27585C5.26375 7.27585 6.67217 5.50719 6.69584 5.48441C6.87486 5.30385 6.97531 5.05987 6.97531 4.8056C6.97531 4.55133 6.87486 4.30736 6.69584 4.1268C6.66867 4.10051 5.05516 2.00144 5.05516 2.00144C4.8719 1.83711 4.63273 1.7491 4.38667 1.75546C4.1406 1.76181 3.90629 1.86205 3.73176 2.03562L2.72387 2.91206C-2.22093 8.85782 12.9158 23.1552 18.1262 18.2313L18.9246 17.3111C19.1117 17.1378 19.2241 16.8985 19.238 16.6439C19.2519 16.3892 19.1662 16.1391 18.9991 15.9465Z" fill="black"/>
</svg>
