<svg width="71" height="71" viewBox="0 0 71 71" fill="none" xmlns="http://www.w3.org/2000/svg">
<path d="M32.9026 34.9146C27.3052 39.4109 19.1226 38.5184 14.6263 32.921L14 32.1414C19.5974 27.645 27.78 28.5376 32.2764 34.135L32.9026 34.9146Z" fill="black"/>
<path d="M28.7894 27.9765C21.6217 28.3925 15.474 22.9192 15.0579 15.7516L15 14.7533C22.1676 14.3372 28.3154 19.8105 28.7314 26.9781L28.7894 27.9765Z" fill="black"/>
<path d="M33.9385 34.0655C29.0019 28.8522 29.2262 20.6241 34.4395 15.6876L35.1656 15C40.1022 20.2132 39.8779 28.4413 34.6646 33.3779L33.9385 34.0655Z" fill="black"/>
<path d="M40.4649 43.6822C36.3422 37.8042 37.7651 29.697 43.6431 25.5742L44.4618 25C48.5845 30.878 47.1616 38.9852 41.2836 43.108L40.4649 43.6822Z" fill="black"/>
<path d="M39.6071 44.4543C34.1997 49.1775 25.9873 48.6228 21.2641 43.2154L20.6062 42.4623C26.0136 37.7391 34.2261 38.2938 38.9492 43.7011L39.6071 44.4543Z" fill="black"/>
<path d="M41 45C50.6 55.8 56.6667 56.5 58.5 55.5" stroke="black" stroke-linecap="round"/>
<circle cx="35.5" cy="35.5" r="35" stroke="black"/>
</svg>
